<svg xmlns="http://www.w3.org/2000/svg" width="1200" height="760" viewBox="0 0 1200 760">
  <defs>
    <linearGradient id="bg" x1="0" y1="0" x2="1" y2="1"><stop stop-color="#07111f"/><stop offset="0.55" stop-color="#0a2a43"/><stop offset="1" stop-color="#06111c"/></linearGradient>
    <linearGradient id="cell" x1="0" y1="0" x2="1" y2="1"><stop stop-color="#0d6b91"/><stop offset="1" stop-color="#07334e"/></linearGradient>
    <filter id="glow"><feGaussianBlur stdDeviation="5" result="blur"/><feMerge><feMergeNode in="blur"/><feMergeNode in="SourceGraphic"/></feMerge></filter>
  </defs>
  <rect width="1200" height="760" fill="url(#bg)"/>
  <text x="44" y="66" fill="#e6fbff" font-size="34" font-family="Segoe UI, Arial" font-weight="800">BATTLESHIP COMMAND CENTER</text>
  <text x="46" y="96" fill="#9bd8ec" font-size="16" font-family="Segoe UI, Arial">Sonar-driven JavaFX tactical board with animated hit/miss feedback</text>
  <rect x="42" y="130" rx="26" ry="26" width="720" height="570" fill="rgba(10,24,38,.78)" stroke="rgba(126,230,255,.35)"/>
  <text x="78" y="180" fill="#f1fdff" font-size="22" font-weight="700" font-family="Segoe UI, Arial">Tactical Ocean Grid</text>
  <g transform="translate(110 220)">
    <text x="30" y="-18" fill="#7ee6ff" font-size="16" font-weight="700">0</text><text x="100" y="-18" fill="#7ee6ff" font-size="16" font-weight="700">1</text><text x="170" y="-18" fill="#7ee6ff" font-size="16" font-weight="700">2</text><text x="240" y="-18" fill="#7ee6ff" font-size="16" font-weight="700">3</text><text x="310" y="-18" fill="#7ee6ff" font-size="16" font-weight="700">4</text><text x="380" y="-18" fill="#7ee6ff" font-size="16" font-weight="700">5</text><text x="450" y="-18" fill="#7ee6ff" font-size="16" font-weight="700">6</text><text x="520" y="-18" fill="#7ee6ff" font-size="16" font-weight="700">7</text>
    <script type="application/ecmascript"><![CDATA[]]></script>
    <g id="grid">
      <rect x="0" y="0" width="60" height="60" rx="12" fill="url(#cell)" stroke="#7ee6ff" opacity=".75"/><rect x="70" y="0" width="60" height="60" rx="12" fill="url(#cell)" stroke="#7ee6ff" opacity=".75"/><rect x="140" y="0" width="60" height="60" rx="12" fill="url(#cell)" stroke="#7ee6ff" opacity=".75"/><rect x="210" y="0" width="60" height="60" rx="12" fill="url(#cell)" stroke="#7ee6ff" opacity=".75"/><rect x="280" y="0" width="60" height="60" rx="12" fill="url(#cell)" stroke="#7ee6ff" opacity=".75"/><rect x="350" y="0" width="60" height="60" rx="12" fill="url(#cell)" stroke="#7ee6ff" opacity=".75"/><rect x="420" y="0" width="60" height="60" rx="12" fill="url(#cell)" stroke="#7ee6ff" opacity=".75"/><rect x="490" y="0" width="60" height="60" rx="12" fill="url(#cell)" stroke="#7ee6ff" opacity=".75"/>
      <rect x="0" y="70" width="60" height="60" rx="12" fill="url(#cell)" stroke="#7ee6ff" opacity=".75"/><rect x="70" y="70" width="60" height="60" rx="12" fill="url(#cell)" stroke="#7ee6ff" opacity=".75"/><rect x="140" y="70" width="60" height="60" rx="12" fill="#68203a" stroke="#ff4d6d"/><circle cx="170" cy="100" r="13" fill="#ff4d6d" filter="url(#glow)"/><rect x="210" y="70" width="60" height="60" rx="12" fill="url(#cell)" stroke="#7ee6ff" opacity=".75"/><rect x="280" y="70" width="60" height="60" rx="12" fill="url(#cell)" stroke="#7ee6ff" opacity=".75"/><rect x="350" y="70" width="60" height="60" rx="12" fill="url(#cell)" stroke="#7ee6ff" opacity=".75"/><rect x="420" y="70" width="60" height="60" rx="12" fill="url(#cell)" stroke="#7ee6ff" opacity=".75"/><rect x="490" y="70" width="60" height="60" rx="12" fill="url(#cell)" stroke="#7ee6ff" opacity=".75"/>
      <rect x="0" y="140" width="60" height="60" rx="12" fill="url(#cell)" stroke="#7ee6ff" opacity=".75"/><rect x="70" y="140" width="60" height="60" rx="12" fill="#2e465a" stroke="#e9f5ff"/><circle cx="100" cy="170" r="8" fill="#e9f5ff"/><rect x="140" y="140" width="60" height="60" rx="12" fill="url(#cell)" stroke="#7ee6ff" opacity=".75"/><rect x="210" y="140" width="60" height="60" rx="12" fill="url(#cell)" stroke="#7ee6ff" opacity=".75"/><rect x="280" y="140" width="60" height="60" rx="12" fill="#6f4b08" stroke="#ffd166"/><circle cx="310" cy="170" r="15" fill="#ffd166" filter="url(#glow)"/><rect x="350" y="140" width="60" height="60" rx="12" fill="url(#cell)" stroke="#7ee6ff" opacity=".75"/><rect x="420" y="140" width="60" height="60" rx="12" fill="url(#cell)" stroke="#7ee6ff" opacity=".75"/><rect x="490" y="140" width="60" height="60" rx="12" fill="url(#cell)" stroke="#7ee6ff" opacity=".75"/>
    </g>
  </g>
  <rect x="800" y="130" rx="26" ry="26" width="350" height="570" fill="rgba(10,24,38,.78)" stroke="rgba(126,230,255,.35)"/>
  <text x="832" y="180" fill="#f1fdff" font-size="22" font-weight="700" font-family="Segoe UI, Arial">Command Console</text>
  <rect x="832" y="210" width="286" height="95" rx="16" fill="rgba(255,255,255,.08)"/>
  <text x="852" y="242" fill="#e8fbff" font-size="16">Torpedoes launched: 12</text>
  <text x="852" y="270" fill="#e8fbff" font-size="16">Ships sunk: 1 / 3</text>
  <rect x="832" y="330" width="286" height="46" rx="15" fill="#00c2ff"/>
  <text x="923" y="360" fill="#03131c" font-size="16" font-weight="800">New Mission</text>
  <rect x="832" y="400" width="286" height="210" rx="16" fill="#07131f" stroke="rgba(126,230,255,.25)"/>
  <text x="852" y="432" fill="#d8faff" font-size="14">• HIT at B2 on Captain Nemo.</text>
  <text x="852" y="462" fill="#d8faff" font-size="14">• MISS at C1.</text>
  <text x="852" y="492" fill="#d8faff" font-size="14">• KILL CONFIRMED.</text>
</svg>
